<svg width="1440" height="63" viewBox="0 0 1440 63" fill="none" xmlns="http://www.w3.org/2000/svg">
<g clip-path="url(#clip0_4386_2456)">
<rect width="1440" height="63" fill="#1316DD"/>
<path fill-rule="evenodd" clip-rule="evenodd" d="M40.9589 17.9132C45.5225 19.5676 50.0543 23.6566 49.3831 30.2265C48.9899 34.0747 46.3925 36.4618 43.1805 37.6265C41.971 38.065 40.656 38.341 39.2965 38.4696L36.4907 44.9024C35.7684 46.5585 33.898 47.3852 32.1871 46.8048L25.1746 44.4256C23.2601 43.776 22.3015 41.636 23.0915 39.7749L25.3058 34.5583C24.723 34.0634 24.1978 33.5228 23.7456 32.9367C22.7391 31.6324 22.0898 30.0932 22.0086 28.3601C21.9276 26.6305 22.4173 24.8149 23.511 22.9589C23.9009 22.2972 24.7534 22.0769 25.4151 22.4668C26.0767 22.8567 26.2971 23.7092 25.9071 24.3708C25.0339 25.8526 24.7357 27.1381 24.7868 28.23C24.8378 29.3186 25.2407 30.3217 25.9474 31.2376C26.1047 31.4414 26.2767 31.6403 26.4624 31.8337L28.442 27.1702C28.7421 26.4632 29.5584 26.1333 30.2654 26.4334C30.9723 26.7336 31.3022 27.5499 31.0021 28.2569L28.7431 33.5787C30.0341 34.3232 31.5681 34.9096 33.2282 35.2905C34.6205 35.6099 36.0525 35.7729 37.438 35.7739L40.0367 29.8159C40.3531 29.0905 40.0039 28.2441 39.2628 27.9525C37.3978 27.2185 34.8594 26.2101 32.6348 25.293C31.8336 24.9627 30.9891 24.4247 30.3817 23.6825C29.7563 22.9184 29.323 21.8438 29.6539 20.6197C30.2297 18.4896 32.2282 17.4699 34.207 17.14C36.2383 16.8014 38.671 17.0838 40.9589 17.9132ZM40.6062 35.4669L42.586 30.9278C43.5343 28.7536 42.4839 26.2312 40.2813 25.3645C38.421 24.6323 35.8988 23.6303 33.6947 22.7217C33.201 22.5181 32.7786 22.2198 32.5341 21.9211C32.3076 21.6444 32.3042 21.4735 32.3388 21.3455C32.4962 20.7633 33.1352 20.1383 34.6643 19.8834C36.1406 19.6373 38.0858 19.83 40.0111 20.5279C43.8741 21.9283 47.1108 25.1028 46.6162 29.9439C46.3604 32.4477 44.7386 34.1031 42.2325 35.0118C41.7191 35.1979 41.1744 35.3495 40.6062 35.4669ZM36.2403 38.5198C35.0147 38.449 33.7894 38.2727 32.6063 38.0012C30.8728 37.6035 29.1688 36.9872 27.6497 36.1545L25.6516 40.8617C25.4936 41.2339 25.6853 41.6619 26.0682 41.7918L33.0806 44.171C33.4228 44.2871 33.797 44.1218 33.9414 43.7906L36.2403 38.5198Z" fill="white"/>
<path d="M55.9399 39.7963H60.0782V35.0714V30.4542L65.7378 39.7963H69.231V24.6182H65.8629V33.815L60.2973 24.6182H55.9399V39.7963Z" fill="white"/>
<path d="M66.595 39.7963H70.2252V34.2107H70.9342H73.4822L74.9597 30.9728H70.2252V27.8562H76.538V24.6182H66.595V39.7963Z" fill="white"/>
<path d="M76.538 39.7963H80.6818V27.8562H84.5961V24.6182H72.495V27.8562H76.538V39.7963Z" fill="white"/>
<path d="M85.0631 29.5156V44.2484H88.391V39.1081C89.0767 39.7152 89.9641 40.0593 91.0331 40.0593C93.8969 40.0593 96.1155 37.7725 96.1155 34.6559C96.1155 31.5393 93.8969 29.2524 91.0331 29.2524C89.8633 29.2524 88.9153 29.6774 88.1892 30.3857L87.8868 29.5156H85.0631ZM90.5087 32.3285C91.8398 32.3285 92.6465 33.2393 92.6465 34.6559C92.6465 36.0927 91.8398 36.9831 90.5087 36.9831C89.1775 36.9831 88.391 36.0927 88.391 34.6559C88.391 33.2393 89.1775 32.3285 90.5087 32.3285Z" fill="white"/>
<path d="M97.8853 39.7962H101.213V34.8785C101.213 33.4011 102.141 32.5917 103.411 32.5917C103.714 32.5917 104.097 32.5917 104.46 32.7131L104.864 29.3941C104.42 29.293 104.178 29.2524 103.774 29.2524C102.564 29.2524 101.717 29.6977 101.092 30.3857L100.85 29.5156H97.8853V39.7962Z" fill="white"/>
<path d="M110.938 29.2524C107.731 29.2524 105.371 31.5393 105.371 34.6559C105.371 37.7725 107.731 40.0593 110.938 40.0593C114.165 40.0593 116.524 37.7725 116.524 34.6559C116.524 31.5393 114.165 29.2524 110.938 29.2524ZM110.938 32.3285C112.269 32.3285 113.076 33.2393 113.076 34.6559C113.076 36.0927 112.269 36.9831 110.938 36.9831C109.607 36.9831 108.82 36.0927 108.82 34.6559C108.82 33.2393 109.607 32.3285 110.938 32.3285Z" fill="white"/>
<path d="M117.121 31.2156V32.4298H119.137V36.4571C119.137 38.6225 120.63 40.0594 123.07 40.0594C124.018 40.0594 124.925 39.8368 125.753 39.4118L125.026 36.7202C124.663 36.8821 124.32 36.9833 123.917 36.9833C123.07 36.9833 122.465 36.5988 122.465 35.6476V32.4298H125.894V29.5157H122.465V27.2896H121.355L117.121 31.2156Z" fill="white"/>
<path d="M132.13 40.0593C134.389 40.0593 136.204 39.1081 136.99 37.1653L134.207 36.1939C133.925 36.801 133.34 37.2463 132.17 37.2463C131.021 37.2463 130.234 36.7403 129.931 35.7082H137.091C137.212 35.2225 137.252 34.6963 137.252 34.2915C137.252 31.256 135.114 29.2524 132.09 29.2524C128.843 29.2524 126.604 31.5595 126.604 34.7368C126.604 37.7522 128.641 40.0593 132.13 40.0593ZM132.09 31.9035C133.178 31.9035 133.884 32.5309 134.005 33.4821H129.911C130.214 32.45 130.98 31.9035 132.09 31.9035Z" fill="white"/>
<path d="M138.263 34.6559C138.263 37.7725 140.542 40.0593 143.669 40.0593C146.351 40.0593 148.308 38.4605 148.812 36.3558L145.565 35.7487C145.363 36.538 144.717 37.0034 143.709 37.0034C142.478 37.0034 141.712 36.1737 141.712 34.6559C141.712 33.1381 142.56 32.3285 143.749 32.3285C144.637 32.3285 145.303 32.794 145.504 33.7047L148.771 32.9761C148.287 30.7298 146.372 29.2524 143.81 29.2524C140.623 29.2524 138.263 31.5393 138.263 34.6559Z" fill="white"/>
<path d="M149.245 31.2156V32.4298H151.261V36.4571C151.261 38.6225 152.754 40.0594 155.195 40.0594C156.142 40.0594 157.05 39.8368 157.877 39.4118L157.15 36.7202C156.787 36.8821 156.445 36.9833 156.041 36.9833C155.195 36.9833 154.589 36.5988 154.589 35.6476V32.4298H158.018V29.5157H154.589V27.2896H153.48L149.245 31.2156Z" fill="white"/>
<rect x="1273.82" y="47.959" width="9.04761" height="40" rx="4.52381" transform="rotate(-122.176 1273.82 47.959)" fill="#9DB5FF"/>
<circle cx="1087" cy="1" r="20" stroke="black" stroke-width="20"/>
</g>
<defs>
<clipPath id="clip0_4386_2456">
<rect width="1440" height="63" fill="white"/>
</clipPath>
</defs>
</svg>
